<svg xmlns="http://www.w3.org/2000/svg" width="720" height="980" viewBox="0 0 720 980" role="img" aria-labelledby="title desc">
  <title id="title">Moonwake Academy cover</title>
  <desc id="desc">Decorative fantasy cover art for the Moonwake Academy story card.</desc>
  <defs>
    <linearGradient id="bg" x1="0" x2="1" y1="0" y2="1">
      <stop offset="0%" stop-color="#3b2f69"/>
      <stop offset="55%" stop-color="#6f5cb0"/>
      <stop offset="100%" stop-color="#f0d6b1"/>
    </linearGradient>
  </defs>
  <rect width="720" height="980" rx="52" fill="url(#bg)"/>
  <circle cx="562" cy="168" r="106" fill="rgba(255,244,209,0.55)"/>
  <path d="M86 822c102-142 176-210 274-210s172 68 274 210" fill="none" stroke="#f8e9ca" stroke-width="16" stroke-linecap="round"/>
  <path d="M150 746l66-190 64 98 78-206 74 126 74-120 72 218" fill="none" stroke="#f4d6ae" stroke-width="18" stroke-linecap="round" stroke-linejoin="round"/>
  <g fill="#f6e9cb">
    <circle cx="176" cy="278" r="9"/>
    <circle cx="236" cy="218" r="8"/>
    <circle cx="294" cy="314" r="7"/>
    <circle cx="392" cy="230" r="7"/>
    <circle cx="472" cy="292" r="8"/>
    <circle cx="548" cy="252" r="9"/>
  </g>
  <text x="64" y="116" fill="#fffaf1" font-family="Georgia, serif" font-size="34" letter-spacing="10">MOONWAKE ACADEMY</text>
  <text x="64" y="860" fill="#fffaf1" font-family="Georgia, serif" font-size="72" font-weight="700">Lanterns</text>
  <text x="64" y="924" fill="#f7e4c0" font-family="Trebuchet MS, sans-serif" font-size="26" letter-spacing="7">A SOFT MAGIC STORY</text>
</svg>
