<svg xmlns="http://www.w3.org/2000/svg" width="720" height="980" viewBox="0 0 720 980" role="img" aria-labelledby="title desc">
  <title id="title">Crownfall Court cover</title>
  <desc id="desc">Decorative courtly cover art for a Crownfall Court story card.</desc>
  <defs>
    <linearGradient id="bg" x1="0" x2="1" y1="0" y2="1">
      <stop offset="0%" stop-color="#5a2433"/>
      <stop offset="45%" stop-color="#a54f49"/>
      <stop offset="100%" stop-color="#f2d6a3"/>
    </linearGradient>
  </defs>
  <rect width="720" height="980" rx="52" fill="url(#bg)"/>
  <rect x="124" y="182" width="472" height="318" rx="28" fill="#fff4dd" opacity="0.86"/>
  <path d="M164 242h392M164 288h324M164 334h366M164 380h286" fill="none" stroke="#b98162" stroke-width="12" stroke-linecap="round"/>
  <path d="M218 646c88-98 162-144 236-144 82 0 148 46 222 144" fill="none" stroke="#fbe9ca" stroke-width="16" stroke-linecap="round"/>
  <path d="M360 556l34 78h88l-70 52 28 84-80-48-80 48 28-84-70-52h88z" fill="#fff2ca"/>
  <text x="66" y="120" fill="#fffaf1" font-family="Georgia, serif" font-size="34" letter-spacing="10">CROWnFALL COURT</text>
  <text x="66" y="858" fill="#fffaf1" font-family="Georgia, serif" font-size="66" font-weight="700">Letters at Dawn</text>
  <text x="66" y="922" fill="#fbe2b9" font-family="Trebuchet MS, sans-serif" font-size="26" letter-spacing="7">SECRETS AND SOFTNESS</text>
</svg>
