<svg xmlns="http://www.w3.org/2000/svg" width="320" height="320" viewBox="0 0 320 320" role="img" aria-labelledby="title desc">
  <title id="title">luna_reads avatar</title>
  <desc id="desc">Decorative avatar placeholder for the profile of luna_reads.</desc>
  <defs>
    <linearGradient id="bg" x1="0" x2="1" y1="0" y2="1">
      <stop offset="0%" stop-color="#8b2640"/>
      <stop offset="100%" stop-color="#d08b61"/>
    </linearGradient>
  </defs>
  <rect width="320" height="320" rx="80" fill="url(#bg)"/>
  <circle cx="160" cy="126" r="64" fill="#f8e3cc"/>
  <path d="M84 278c18-56 52-92 76-92h0c24 0 58 36 76 92" fill="#f3dfcb"/>
  <path d="M100 120c12-42 38-68 60-68 26 0 58 28 60 74-16-16-40-24-68-24-22 0-38 6-52 18z" fill="#2f2331"/>
  <circle cx="136" cy="128" r="6" fill="#4a3832"/>
  <circle cx="186" cy="128" r="6" fill="#4a3832"/>
  <path d="M140 156c10 8 28 8 40 0" fill="none" stroke="#8c4d56" stroke-width="6" stroke-linecap="round"/>
  <path d="M74 274c34-48 74-74 86-74 14 0 56 26 92 74" fill="none" stroke="#fff3e1" stroke-width="10" stroke-linecap="round"/>
</svg>
