<svg xmlns="http://www.w3.org/2000/svg" width="1200" height="760" viewBox="0 0 1200 760" role="img" aria-labelledby="title desc">
  <title id="title">AO3 fandom list placeholder</title>
  <desc id="desc">Stylized placeholder for the AO3 fandom list screenshot pending exported source media.</desc>
  <rect width="1200" height="760" fill="#fbf6ef"/>
  <rect x="64" y="44" width="1072" height="672" rx="24" fill="#fffdf8" stroke="#d5c3b5" stroke-width="4"/>
  <rect x="64" y="44" width="1072" height="86" rx="24" fill="#8e2130"/>
  <text x="106" y="97" fill="#fff8f2" font-family="Georgia, serif" font-size="32" font-weight="700">AO3 Fandom List</text>
  <rect x="102" y="176" width="780" height="28" rx="14" fill="#eee1d5"/>
  <rect x="102" y="226" width="930" height="444" rx="18" fill="#f8f0e7" stroke="#dac8bb" stroke-width="3"/>
  <rect x="1050" y="248" width="20" height="360" rx="10" fill="#d3bfaf"/>
  <g fill="#c4a793">
    <rect x="138" y="260" width="430" height="12" rx="6"/>
    <rect x="138" y="294" width="494" height="12" rx="6"/>
    <rect x="138" y="328" width="388" height="12" rx="6"/>
    <rect x="138" y="362" width="462" height="12" rx="6"/>
    <rect x="138" y="396" width="518" height="12" rx="6"/>
    <rect x="138" y="430" width="356" height="12" rx="6"/>
    <rect x="138" y="464" width="422" height="12" rx="6"/>
    <rect x="138" y="498" width="528" height="12" rx="6"/>
    <rect x="138" y="532" width="376" height="12" rx="6"/>
    <rect x="138" y="566" width="486" height="12" rx="6"/>
    <rect x="138" y="600" width="412" height="12" rx="6"/>
  </g>
  <text x="100" y="704" fill="#6c594f" font-family="Trebuchet MS, sans-serif" font-size="24">Placeholder figure. Replace with exported AO3 fandom list screenshot.</text>
</svg>
