<svg xmlns="http://www.w3.org/2000/svg" width="1200" height="760" viewBox="0 0 1200 760" role="img" aria-labelledby="title desc">
  <title id="title">AO3 story list placeholder</title>
  <desc id="desc">Stylized placeholder for the AO3 story list screenshot pending exported source media.</desc>
  <rect width="1200" height="760" fill="#fbf6ef"/>
  <rect x="54" y="44" width="1092" height="672" rx="24" fill="#fffdf8" stroke="#d5c3b5" stroke-width="4"/>
  <rect x="54" y="44" width="1092" height="86" rx="24" fill="#8e2130"/>
  <text x="96" y="97" fill="#fff8f2" font-family="Georgia, serif" font-size="32" font-weight="700">AO3 Story List</text>
  <g>
    <rect x="96" y="170" width="1008" height="140" rx="18" fill="#f8efe6" stroke="#d9c5b7" stroke-width="3"/>
    <rect x="96" y="334" width="1008" height="140" rx="18" fill="#f8efe6" stroke="#d9c5b7" stroke-width="3"/>
    <rect x="96" y="498" width="1008" height="140" rx="18" fill="#f8efe6" stroke="#d9c5b7" stroke-width="3"/>
    <g fill="#c4a793">
      <rect x="132" y="204" width="244" height="14" rx="7"/>
      <rect x="132" y="236" width="588" height="12" rx="6"/>
      <rect x="132" y="260" width="664" height="12" rx="6"/>
      <rect x="826" y="204" width="110" height="24" rx="12" fill="#ead8ca"/>
      <rect x="944" y="204" width="110" height="24" rx="12" fill="#ead8ca"/>
      <rect x="132" y="368" width="264" height="14" rx="7"/>
      <rect x="132" y="400" width="614" height="12" rx="6"/>
      <rect x="132" y="424" width="632" height="12" rx="6"/>
      <rect x="826" y="368" width="108" height="24" rx="12" fill="#ead8ca"/>
      <rect x="942" y="368" width="108" height="24" rx="12" fill="#ead8ca"/>
      <rect x="132" y="532" width="248" height="14" rx="7"/>
      <rect x="132" y="564" width="580" height="12" rx="6"/>
      <rect x="132" y="588" width="648" height="12" rx="6"/>
      <rect x="826" y="532" width="110" height="24" rx="12" fill="#ead8ca"/>
      <rect x="944" y="532" width="110" height="24" rx="12" fill="#ead8ca"/>
    </g>
  </g>
  <text x="94" y="704" fill="#6c594f" font-family="Trebuchet MS, sans-serif" font-size="24">Placeholder figure. Replace with exported AO3 story list screenshot.</text>
</svg>
